<?xml version="1.0" ?><!DOCTYPE svg  PUBLIC '-//W3C//DTD SVG 1.1//EN'  'http://www.w3.org/Graphics/SVG/1.1/DTD/svg11.dtd'><svg height="128px" id="Layer_1" style="enable-background:new 0 0 128 128;" version="1.1" viewBox="0 0 128 128" width="128px" xml:space="preserve" xmlns="http://www.w3.org/2000/svg" xmlns:xlink="http://www.w3.org/1999/xlink"><style type="text/css">
<![CDATA[
	.st0{fill-rule:evenodd;clip-rule:evenodd;}
]]>
</style><path d="M105.261,13.488C89.05,12.96,78.079,22.055,72.334,40.78c2.958-1.219,5.833-1.833,8.638-1.833  c5.911,0,8.527,3.316,7.83,9.972c-0.348,4.03-2.959,9.891-7.83,17.585C76.079,74.21,72.427,78.057,70,78.057  c-3.15,0-6.018-5.954-8.637-17.848c-0.879-3.501-2.447-12.42-4.697-26.776c-2.108-13.297-7.678-19.509-16.736-18.636  c-3.831,0.352-9.57,3.859-17.231,10.501c-5.587,5.075-11.25,10.154-17.006,15.228l5.484,7.08c5.234-3.678,8.296-5.508,9.146-5.508  c4.012,0,7.763,6.296,11.247,18.885c3.129,11.562,6.28,23.106,9.42,34.653c4.68,12.597,10.447,18.897,17.231,18.897  c10.974,0,24.409-10.318,40.253-30.967c15.329-19.769,23.242-35.344,23.776-46.726C122.953,21.626,117.292,13.835,105.261,13.488z"/></svg>